<?xml version="1.0" encoding="UTF-8" standalone="no"?>
<svg
   xmlns:dc="http://purl.org/dc/elements/1.1/"
   xmlns:cc="http://creativecommons.org/ns#"
   xmlns:rdf="http://www.w3.org/1999/02/22-rdf-syntax-ns#"
   xmlns:svg="http://www.w3.org/2000/svg"
   xmlns="http://www.w3.org/2000/svg"
   xmlns:sodipodi="http://sodipodi.sourceforge.net/DTD/sodipodi-0.dtd"
   xmlns:inkscape="http://www.inkscape.org/namespaces/inkscape"
   inkscape:version="1.0 (4035a4fb49, 2020-05-01)"
   sodipodi:docname="listitem.svg"
   id="svg2"
   width="128"
   height="300"
   version="1.0">
  <sodipodi:namedview
     inkscape:lockguides="false"
     inkscape:document-rotation="0"
     inkscape:current-layer="svg2"
     inkscape:window-maximized="1"
     inkscape:window-y="0"
     inkscape:window-x="0"
     inkscape:cy="215.16166"
     inkscape:cx="293.09501"
     inkscape:zoom="1.1125146"
     showgrid="false"
     id="namedview58"
     inkscape:window-height="1024"
     inkscape:window-width="1920"
     inkscape:pageshadow="2"
     inkscape:pageopacity="0"
     guidetolerance="10"
     gridtolerance="10"
     objecttolerance="10"
     borderopacity="1"
     bordercolor="#666666"
     pagecolor="#ffffff" />
  <metadata
     id="metadata7">
    <rdf:RDF>
      <cc:Work
         rdf:about="">
        <dc:format>image/svg+xml</dc:format>
        <dc:type
           rdf:resource="http://purl.org/dc/dcmitype/StillImage" />
        <dc:title />
      </cc:Work>
      <cc:Work
         rdf:about="">
        <dc:format>image/svg+xml</dc:format>
        <dc:type
           rdf:resource="http://purl.org/dc/dcmitype/StillImage" />
      </cc:Work>
    </rdf:RDF>
  </metadata>
  <defs
     id="defs5">
    <style
       id="current-color-scheme"
       type="text/css">.ColorScheme-Text
    </style>
  </defs>
  <rect
     ry="2.077126"
     rx="0"
     y="-10"
     x="-10"
     height="2.077126"
     width="2.0329318"
     id="hint-tile-center"
     style="fill:#2e75bc;fill-opacity:1;fill-rule:nonzero;stroke:none;opacity:0.01" />
  <rect
     style="fill:#2e75bc;fill-opacity:1;fill-rule:nonzero;stroke:none;opacity:0.01"
     id="pressed-hint-top-margin"
     width="2"
     height="6"
     x="25.21928"
     y="2.1588984" />
  <rect
     y="22.13983"
     x="24.471399"
     height="6"
     width="2"
     id="pressed-hint-bottom-margin"
     style="fill:#2e75bc;fill-opacity:1;fill-rule:nonzero;stroke:none;opacity:0.01" />
  <rect
     y="14.887712"
     x="13.257415"
     height="2"
     width="4"
     id="pressed-hint-left-margin"
     style="fill:#2e75bc;fill-opacity:1;fill-rule:nonzero;stroke:none;opacity:0.01" />
  <rect
     style="fill:#2e75bc;fill-opacity:1;fill-rule:nonzero;stroke:none;opacity:0.01"
     id="pressed-hint-right-margin"
     width="4"
     height="2"
     x="33.569916"
     y="14.728813" />
  <rect
     style="fill:#2e75bc;fill-opacity:1;fill-rule:nonzero;stroke:none;opacity:0.01"
     id="normal-hint-left-margin"
     width="4"
     height="1.9999999"
     x="17"
     y="58" />
  <rect
     y="44"
     x="28"
     height="6"
     width="2"
     id="normal-hint-top-margin"
     style="fill:#2e75bc;fill-opacity:1;fill-rule:nonzero;stroke:none;opacity:0.01" />
  <rect
     style="fill:#2e75bc;fill-opacity:1;fill-rule:nonzero;stroke:none;opacity:0.01"
     id="normal-hint-bottom-margin"
     width="2"
     height="6"
     x="29"
     y="67" />
  <rect
     y="58"
     x="38"
     height="2"
     width="4"
     id="normal-hint-right-margin"
     style="fill:#2e75bc;fill-opacity:1;fill-rule:nonzero;stroke:none;opacity:0.01" />
  <g
     id="separator"
     style="opacity:1"
     transform="translate(11,-4)">
    <rect
       class="ColorScheme-ViewBackground"
       transform="scale(1,-1)"
       y="-49"
       x="63"
       height="1"
       width="40"
       id="rect4052"
       style="opacity:0.2;fill:currentColor;fill-opacity:1;stroke:none" />
    <rect
       style="opacity:0.3;fill:#2e75bc;fill-opacity:1;stroke:none"
       id="rect4054"
       width="40"
       height="1"
       x="63"
       y="-49"
       transform="scale(1,-1)"
       class="ColorScheme-ViewText" />
  </g>
  <path
     id="normal-center"
     d="m 24,53.000345 0,11 10.999999,0 0,-11 -10.999999,0 z"
     style="opacity:0.1;fill:#2e75bc;fill-opacity:1;fill-rule:nonzero;stroke:none"
     class="ColorScheme-ViewBackground" />
  <path
     id="normal-right"
     d="m 35,53.000345 0,11 2,0 c 6.68e-4,-0.01835 0,-0.03439 0,-0.05288 l 0,-10.89423 c 0,-0.0185 6.68e-4,-0.03453 0,-0.05288 l -2,0 z"
     style="opacity:0.1;fill:#2e75bc;fill-opacity:1;fill-rule:nonzero;stroke:none"
     class="ColorScheme-ViewBackground" />
  <path
     id="normal-top"
     d="m 24,51.000298 0,2.000047 10.999999,0 0,-2.000047 c -0.0041,-6.7e-4 0.0042,0 10e-7,0 l -10.98814,0 c -0.004,0 -0.008,-6.7e-4 -0.0119,0 z"
     style="opacity:0.1;fill:#2e75bc;fill-opacity:1;fill-rule:nonzero;stroke:none"
     class="ColorScheme-ViewBackground" />
  <path
     id="normal-left"
     d="m 22.0003,53.000345 c -6.7e-4,0.01835 0,0.03439 0,0.05288 l 0,10.89423 c 0,0.0185 -6.7e-4,0.03453 0,0.05288 l 2,0 0,-11 -2,0 z"
     style="opacity:0.1;fill:#2e75bc;fill-opacity:1;fill-rule:nonzero;stroke:none"
     class="ColorScheme-ViewBackground" />
  <path
     id="normal-bottom"
     d="m 24,64 0,2 11,0 0,-1.999655 z"
     style="opacity:0.1;fill:#2e75bc;fill-opacity:1;fill-rule:nonzero;stroke:none"
     class="ColorScheme-ViewBackground" />
  <path
     style="opacity:0.1;fill:#2e75bc;fill-opacity:1;fill-rule:nonzero;stroke:none"
     d="m 21.999967,51.000298 0,2.000047 1.999771,0 0,-2.000047 c -7.46e-4,-6.7e-4 7.63e-4,0 0,0 l -1.997614,0 c -7.28e-4,0 -0.0015,-6.7e-4 -0.0022,0 z"
     id="normal-topleft"
     class="ColorScheme-ViewBackground" />
  <path
     style="opacity:0.1;fill:#2e75bc;fill-opacity:1;fill-rule:nonzero;stroke:none"
     d="m 35.000007,51.000643 0,1.999702 1.999771,0 0,-1.999702 c -7.46e-4,-6.7e-4 7.63e-4,0 0,0 l -1.997614,0 c -7.28e-4,0 -0.0015,-6.7e-4 -0.0022,0 z"
     id="normal-topright"
     class="ColorScheme-ViewBackground" />
  <path
     id="normal-bottomright"
     d="m 35.000007,64.000298 0,1.999702 1.999771,0 0,-1.999702 c -7.46e-4,-6.7e-4 7.63e-4,0 0,0 l -1.997614,0 c -7.28e-4,0 -0.0015,-6.7e-4 -0.0022,0 z"
     style="opacity:0.1;fill:#2e75bc;fill-opacity:1;fill-rule:nonzero;stroke:none"
     class="ColorScheme-ViewBackground" />
  <path
     style="opacity:0.1;fill:#2e75bc;fill-opacity:1;fill-rule:nonzero;stroke:none"
     d="m 22.000007,64.000298 0,1.999702 1.999771,0 0,-1.999702 c -7.46e-4,-6.7e-4 7.63e-4,0 0,0 l -1.997614,0 c -7.28e-4,0 -0.0015,-6.7e-4 -0.0022,0 z"
     id="normal-bottomleft"
     class="ColorScheme-ViewBackground" />
  <path
     id="pressed-center"
     d="m 19.9997,10.000015 0,11.000005 10.999999,0 0,-11.000005 -10.999999,0 z"
     style="opacity:0.1;fill:#2e75bc;fill-opacity:1;fill-rule:nonzero;stroke:none"
     class="ColorScheme-ViewFocus" />
  <path
     id="pressed-right"
     d="m 30.9997,10.000015 0,11.000005 2,0 c 6.68e-4,-0.01835 0,-0.0344 0,-0.05289 l 0,-10.89423 c 0,-0.0185 6.68e-4,-0.03453 0,-0.05288 l -2,0 z"
     style="opacity:0.15;fill:#2e75bc;fill-opacity:1;fill-rule:nonzero;stroke:none"
     class="ColorScheme-ViewFocus" />
  <path
     id="pressed-top"
     d="m 19.9997,7.999968 0,2.000047 10.999999,0 0,-2.000047 c -0.0041,-6.7e-4 0.0045,0 3.01e-4,0 l -10.98844,0 c -0.004,0 -0.008,-6.7e-4 -0.0119,0 z"
     style="opacity:0.15;fill:#2e75bc;fill-opacity:1;fill-rule:nonzero;stroke:none"
     class="ColorScheme-ViewFocus" />
  <path
     id="pressed-left"
     d="m 18,10.000015 c -6.7e-4,0.01835 0,0.03439 0,0.05288 l 0,10.89423 c 0,0.0185 -6.7e-4,0.03453 0,0.05288 l 2,0 L 20,10 18,10 z"
     style="opacity:0.15;fill:#2e75bc;fill-opacity:1;fill-rule:nonzero;stroke:none"
     class="ColorScheme-ViewFocus" />
  <path
     id="pressed-bottom"
     d="m 20,21 0,2 11,0 0,-2 -11,0 z"
     style="opacity:0.15;fill:#2e75bc;fill-opacity:1;fill-rule:nonzero"
     class="ColorScheme-ViewFocus" />
  <path
     style="opacity:0.15;fill:#2e75bc;fill-opacity:1;fill-rule:nonzero;stroke:none"
     d="m 17.999667,7.999968 0,2.000047 1.999722,0 0,-2.000047 c -7.45e-4,-6.7e-4 8.18e-4,0 5.5e-5,0 l -1.997621,0 c -7.27e-4,0 -0.0015,-6.7e-4 -0.0022,0 z"
     id="pressed-topleft"
     class="ColorScheme-ViewFocus" />
  <path
     id="pressed-topright"
     d="m 31.000044,7.999968 0,2.000047 1.999722,0 0,-2.000047 c -7.45e-4,-6.7e-4 8.18e-4,0 5.5e-5,0 l -1.997621,0 c -7.27e-4,0 -0.0015,-6.7e-4 -0.0022,0 z"
     style="opacity:0.15;fill:#2e75bc;fill-opacity:1;fill-rule:nonzero;stroke:none"
     class="ColorScheme-ViewFocus" />
  <path
     style="opacity:0.15;fill:#2e75bc;fill-opacity:1;fill-rule:nonzero;stroke:none"
     d="m 31.000044,20.999953 0,2.000047 1.999722,0 0,-2.000047 c -7.45e-4,-6.7e-4 8.18e-4,0 5.5e-5,0 l -1.997621,0 c -7.27e-4,0 -0.0015,-6.7e-4 -0.0022,0 z"
     id="pressed-bottomright"
     class="ColorScheme-ViewFocus" />
  <path
     id="pressed-bottomleft"
     d="m 18.000044,20.999953 0,2.000047 1.999722,0 0,-2.000047 c -7.45e-4,-6.7e-4 8.18e-4,0 5.5e-5,0 l -1.997621,0 c -7.27e-4,0 -0.0015,-6.7e-4 -0.0022,0 z"
     style="opacity:0.15;fill:#2e75bc;fill-opacity:1;fill-rule:nonzero;stroke:none"
     class="ColorScheme-ViewFocus" />
  <path
     id="section-center"
     d="m 21.9997,88 0,11 10.999999,0 0,-11 -10.999999,0 z"
     style="opacity:0.1;fill:#2e75bc;fill-opacity:1;fill-rule:nonzero;stroke:none"
     class="ColorScheme-ViewBackground" />
  <path
     id="section-right"
     d="m 32.9997,88 0,11 2,0 c 6.68e-4,-0.0183 0,-0.0344 0,-0.0529 l 0,-10.89423 c 0,-0.0185 6.68e-4,-0.03453 0,-0.05288 l -2,0 z"
     style="opacity:0.1;fill:#2e75bc;fill-opacity:1;fill-rule:nonzero;stroke:none"
     class="ColorScheme-ViewBackground" />
  <path
     id="section-top"
     d="m 21.9997,85.999953 0,2.000047 10.999999,0 0,-2.000047 c -0.0041,-6.7e-4 0.0042,0 10e-7,0 l -10.98814,0 c -0.004,0 -0.008,-6.7e-4 -0.0119,0 z"
     style="opacity:0.1;fill:#2e75bc;fill-opacity:1;fill-rule:nonzero;stroke:none"
     class="ColorScheme-ViewBackground" />
  <path
     id="section-left"
     d="m 20,88 c -6.7e-4,0.01835 0,0.03439 0,0.05288 l 0,10.89423 c 0,0.0185 -6.7e-4,0.0345 0,0.0529 l 2,0 0,-11 -2,0 z"
     style="opacity:0.1;fill:#2e75bc;fill-opacity:1;fill-rule:nonzero;stroke:none"
     class="ColorScheme-ViewBackground" />
  <path
     id="section-bottom"
     d="m 21.9997,98.99966 0,2 11,0 0,-1.99966 z"
     style="opacity:0.1;fill:#2e75bc;fill-opacity:1;fill-rule:nonzero;stroke:none"
     class="ColorScheme-ViewBackground" />
  <g
     style="fill:#00b8b8;fill-opacity:1"
     id="g872">
    <path
       class="ColorScheme-ViewBackground"
       id="section-topleft"
       d="m 19.999667,85.999953 0,2.000047 1.999771,0 0,-2.000047 c -7.46e-4,-6.7e-4 7.63e-4,0 0,0 l -1.997614,0 c -7.28e-4,0 -0.0015,-6.7e-4 -0.0022,0 z"
       style="opacity:0.1;fill:#2e75bc;fill-opacity:1;fill-rule:nonzero;stroke:none" />
  </g>
  <path
     style="opacity:0.1;fill:#2e75bc;fill-opacity:1;fill-rule:nonzero;stroke:none"
     d="m 32.999707,86.000298 0,1.999702 1.999771,0 0,-1.999702 c -7.46e-4,-6.7e-4 7.63e-4,0 0,0 l -1.997614,0 c -7.28e-4,0 -0.0015,-6.7e-4 -0.0022,0 z"
     id="section-topright"
     class="ColorScheme-ViewBackground" />
  <path
     id="section-bottomright"
     d="m 32.999707,98.99995 0,1.99971 1.999771,0 0,-1.99971 c -7.46e-4,-6.7e-4 7.63e-4,0 0,0 l -1.997614,0 c -7.28e-4,0 -0.0015,-6.7e-4 -0.0022,0 z"
     style="opacity:0.1;fill:#2e75bc;fill-opacity:1;fill-rule:nonzero;stroke:none"
     class="ColorScheme-ViewBackground" />
  <path
     style="opacity:0.1;fill:#2e75bc;fill-opacity:1;fill-rule:nonzero;stroke:none"
     d="m 19.999707,98.99995 0,1.99971 1.999771,0 0,-1.99971 c -7.46e-4,-6.7e-4 7.63e-4,0 0,0 l -1.997614,0 c -7.28e-4,0 -0.0015,-6.7e-4 -0.0022,0 z"
     id="section-bottomleft"
     class="ColorScheme-ViewBackground" />
  <rect
     style="fill:#2e75bc;fill-opacity:1;fill-rule:nonzero;stroke:none;opacity:0.01"
     id="section-hint-top-margin"
     width="2"
     height="6"
     x="26.25845"
     y="81.280891" />
  <rect
     y="92.471947"
     x="17.022379"
     height="1.9999999"
     width="4"
     id="section-hint-left-margin"
     style="fill:#2e75bc;fill-opacity:1;fill-rule:nonzero;stroke:none;opacity:0.01" />
  <rect
     y="99.775284"
     x="26.696659"
     height="6"
     width="2"
     id="section-hint-bottom-margin"
     style="fill:#2e75bc;fill-opacity:1;fill-rule:nonzero;stroke:none;opacity:0.01" />
  <path
     id="hover-center"
     d="m 59.9997,7.3841577 0,11.0000053 10.999999,0 0,-11.0000053 -10.999999,0 z"
     style="opacity:0.1;fill:#2e75bc;fill-opacity:1;fill-rule:nonzero;stroke:none"
     class="ColorScheme-ViewFocus" />
  <path
     id="hover-right"
     d="m 70.9997,7.3841577 0,11.0000053 2,0 c 6.68e-4,-0.01835 0,-0.0344 0,-0.05289 l 0,-10.8942303 c 0,-0.0185 6.68e-4,-0.03453 0,-0.05288 l -2,0 z"
     style="opacity:0.1;fill:#2e75bc;fill-opacity:1;fill-rule:nonzero;stroke:none"
     class="ColorScheme-ViewFocus" />
  <path
     id="hover-top"
     d="m 59.9997,5.3841107 0,2.000047 10.999999,0 0,-2.000047 c -0.0041,-6.7e-4 0.0045,0 3.01e-4,0 l -10.98844,0 c -0.004,0 -0.008,-6.7e-4 -0.0119,0 z"
     style="opacity:0.1;fill:#2e75bc;fill-opacity:1;fill-rule:nonzero;stroke:none"
     class="ColorScheme-ViewFocus" />
  <path
     id="hover-left"
     d="m 58,7.3841577 c -6.7e-4,0.01835 0,0.03439 0,0.05288 l 0,10.8942303 c 0,0.0185 -6.7e-4,0.03453 0,0.05288 l 2,0 0,-11.0000053 -2,0 z"
     style="opacity:0.1;fill:#2e75bc;fill-opacity:1;fill-rule:nonzero;stroke:none"
     class="ColorScheme-ViewFocus" />
  <path
     id="hover-bottom"
     d="m 60,18.384143 0,2 11,0 0,-2 -11,0 z"
     style="opacity:0.1;fill:#2e75bc;fill-opacity:1;fill-rule:nonzero"
     class="ColorScheme-ViewFocus" />
  <path
     style="opacity:0.1;fill:#2e75bc;fill-opacity:1;fill-rule:nonzero;stroke:none"
     d="m 57.999667,5.3841107 0,2.000047 1.999722,0 0,-2.000047 c -7.45e-4,-6.7e-4 8.18e-4,0 5.5e-5,0 l -1.997621,0 c -7.27e-4,0 -0.0015,-6.7e-4 -0.0022,0 z"
     id="hover-topleft"
     class="ColorScheme-ViewFocus" />
  <path
     id="hover-topright"
     d="m 71.000044,5.3841107 0,2.000047 1.999722,0 0,-2.000047 c -7.45e-4,-6.7e-4 8.18e-4,0 5.5e-5,0 l -1.997621,0 c -7.27e-4,0 -0.0015,-6.7e-4 -0.0022,0 z"
     style="opacity:0.1;fill:#2e75bc;fill-opacity:1;fill-rule:nonzero;stroke:none"
     class="ColorScheme-ViewFocus" />
  <path
     style="opacity:0.1;fill:#2e75bc;fill-opacity:1;fill-rule:nonzero;stroke:none"
     d="m 71.000044,18.384096 0,2.000047 1.999722,0 0,-2.000047 c -7.45e-4,-6.7e-4 8.18e-4,0 5.5e-5,0 l -1.997621,0 c -7.27e-4,0 -0.0015,-6.7e-4 -0.0022,0 z"
     id="hover-bottomright"
     class="ColorScheme-ViewFocus" />
  <path
     id="hover-bottomleft"
     d="m 58.000044,18.384096 0,2.000047 1.999722,0 0,-2.000047 c -7.45e-4,-6.7e-4 8.18e-4,0 5.5e-5,0 l -1.997621,0 c -7.27e-4,0 -0.0015,-6.7e-4 -0.0022,0 z"
     style="opacity:0.1;fill:#2e75bc;fill-opacity:1;fill-rule:nonzero;stroke:none"
     class="ColorScheme-ViewFocus" />
  <rect
     style="fill:#2e75bc;fill-opacity:1;fill-rule:nonzero;stroke:none;opacity:0.01"
     id="section-hint-right-margin"
     width="4"
     height="2"
     x="33.616932"
     y="92.191048" />
</svg>
